<?xml version="1.0" encoding="utf-8"?>
<!-- Generator: Adobe Illustrator 26.0.2, SVG Export Plug-In . SVG Version: 6.00 Build 0)  -->
<svg version="1.1" id="Layer_1" xmlns="http://www.w3.org/2000/svg" xmlns:xlink="http://www.w3.org/1999/xlink" x="0px" y="0px"
	 viewBox="0 0 144 144" style="enable-background:new 0 0 144 144;" xml:space="preserve">
<style type="text/css">
	.st0{fill:#8DCCF0;}
	.st1{fill:#EC2227;}
	.st2{fill:#F07025;}
	.st3{fill:#804099;}
	.st4{fill:#07A14A;}
	.st5{fill:#214497;}
	.st6{fill:#FFDE11;}
</style>
<g>
	<path class="st0" d="M123.63,144H20.37C9.12,144,0,134.88,0,123.63V20.37C0,9.12,9.12,0,20.37,0h103.26
		C134.88,0,144,9.12,144,20.37v103.26C144,134.88,134.88,144,123.63,144z"/>
	<polygon class="st1" points="72,10.94 72,72 124.87,41.47 	"/>
	<polygon class="st2" points="72,72 116.58,97.75 116.58,46.25 	"/>
	<polygon class="st3" points="72,72 72,35.69 40.56,53.84 	"/>
	<polygon class="st4" points="72,72 35.87,92.85 72,113.7 	"/>
	<polygon class="st5" points="23.24,43.86 72,72 23.24,100.14 	"/>
	<polygon class="st6" points="72,72 72,99.79 96.01,85.88 	"/>
</g>
</svg>
